IKResults
version=1
nRows=27
nColumns=42
inDegrees=yes

"Units are S.I. units (second, meters, Newtons, ...)"
"If the header above contains a line with 'inDegrees', this indicates whether rotational values are in degrees (yes) or radians (no)."

endheader
time	pelvis_tilt	pelvis_list	pelvis_rotation	pelvis_tx	pelvis_ty	pelvis_tz	hip_flexion_r	hip_adduction_r	hip_rotation_r	knee_angle_r	knee_adduction_r	knee_angle_r_beta	ankle_angle_r	subtalar_angle_r	mtp_angle_r	hip_flexion_l	hip_adduction_l	hip_rotation_l	knee_angle_l	knee_adduction_l	knee_angle_l_beta	ankle_angle_l	subtalar_angle_l	mtp_angle_l	lumbar_extension	lumbar_bending	lumbar_rotation	arm_flex_r	arm_add_r	arm_rot_r	elbow_flex_r	pro_sup_r	wrist_flex_r	wrist_dev_r	arm_flex_l	arm_add_l	arm_rot_l	elbow_flex_l	pro_sup_l	wrist_flex_l	wrist_dev_l
1.5	-6.28566902	4.07008497	3.47210278	1.0881236	0.92883472	0.45120175	33.8622848	-10.77890884	7.73986391	25.1223437	2.2228717	0.43846761	-5.13012178	-30.17030657	-6.7925793	-2.91489672	0.34135231	-7.97769634	18.82364743	5.38393913	0.32853462	20.17028484	-2.22580361	-3.66568345	-5.45715999	-2.65556689	-1.6940251	-20.00957275	-6.73509456	-22.63293124	13.9507649	90.00000001	0	0	26.89270367	-20.62261564	-7.41876502	93.80976751	90.00000001	0	0
1.51	-6.31282474	3.38508733	3.83961212	1.09011924	0.92929538	0.45363508	33.76821771	-10.05940562	7.41773341	26.54464301	2.2228717	0.46329142	-3.64483052	-29.76413776	-6.54746389	-2.1936113	-0.91684894	-7.81299907	21.25412664	5.38393913	0.37095449	19.93898601	-2.14173311	-5.3861093	-5.22085207	-1.94289552	-2.29245964	-19.19244882	-7.02430433	-22.28002965	12.92570035	90.00000001	0	0	25.48701996	-20.36502984	-8.56427637	94.87348035	90.00000001	0	0
1.52	-6.05611611	2.90744468	3.96154136	1.09201036	0.93026947	0.45643217	33.3359785	-9.36628012	7.3935642	27.807219	2.2228717	0.48532753	-1.45214482	-28.75983559	-4.5966522	-1.76410666	-1.9478619	-7.68124533	23.56660197	5.38393913	0.4113148	18.21111402	-3.20687607	-9.88494021	-5.3584679	-1.48005278	-2.38744806	-18.30987354	-7.13610586	-22.59115052	12.20276353	90.00000001	0	0	24.37027447	-19.97585126	-9.23696346	95.57421969	90.00000001	0	0
1.53	-5.72400096	2.35355415	4.16625288	1.09392759	0.93146672	0.45901265	32.53185144	-8.67732406	7.16352875	28.43147348	2.2228717	0.49622282	-0.6345537	-28.84709649	-4.77180276	-1.16226145	-3.12958372	-7.55483798	26.38421121	5.38393913	0.46049136	17.59782278	-3.52535682	-10.48446475	-5.56624726	-0.90247065	-2.34696242	-17.70000824	-7.21391871	-22.62257608	12.23850611	90.00000001	0	0	23.35168127	-19.42001494	-9.62868129	95.91220541	90.00000001	0	0
1.54	-5.31977396	2.23528571	4.04252414	1.09522499	0.932813	0.46198859	31.69241879	-8.19064447	7.37205986	28.8630813	2.2228717	0.5037558	0.10808969	-29.0945059	-4.98053239	-0.57857226	-3.81164743	-7.59467561	29.25148993	5.38393913	0.51053481	16.50722056	-4.03368981	-10.6462652	-5.97569044	-0.85304713	-1.95587134	-16.90700949	-7.23705451	-22.56995554	12.35868578	90.00000001	0	0	22.47387709	-18.92367072	-9.88054016	96.02544404	90.00000001	0	0
1.55	-5.62187089	1.47021884	4.54577994	1.09619085	0.93324514	0.46380488	31.29552345	-7.5126627	6.62830075	28.84279487	2.2228717	0.50340174	0.7467364	-29.25377678	-4.71568459	1.39003975	-5.14641571	-6.82736382	32.96369471	5.38393913	0.57532501	15.34191532	-4.92993294	-12.21902301	-5.44744187	-0.02567651	-2.32924738	-15.90023218	-7.50332908	-22.47473088	12.06844029	90.00000001	0	0	21.06278338	-18.3192839	-10.38581637	96.08750806	90.00000001	0	0
1.56	-5.36890015	1.35039951	4.35721243	1.09668958	0.93425718	0.46663023	30.51805596	-7.01735142	6.75996528	28.9535465	2.2228717	0.50533472	1.38306906	-29.52451536	-4.82561493	2.52426643	-5.74850761	-6.57956092	36.33262035	5.38393913	0.63412385	13.84575497	-6.04698592	-12.54214239	-5.71927832	0.03272215	-1.81465325	-14.92780441	-7.61151315	-22.38606466	12.32497117	90.00000001	0	0	20.17762522	-17.76592554	-10.43317157	95.84153709	90.00000001	0	0
1.57	-5.31830416	1.04786413	4.3786732	1.0973358	0.93509688	0.46866693	29.76918431	-6.5345034	6.54578003	28.82463973	2.2228717	0.50308487	1.9350951	-29.69690536	-4.96741424	4.07691961	-6.39714822	-5.832432	39.92010777	5.38393913	0.69673732	12.21297149	-7.52763417	-12.60711234	-5.64085408	0.36326028	-1.45971386	-14.00678938	-7.82824599	-22.27125375	12.67907863	90.00000001	0	0	19.11686074	-17.06943961	-10.38044402	95.26128997	90.00000001	0	0
1.58	-5.62975885	0.5888486	4.81582896	1.09822029	0.93558173	0.47009388	29.2231167	-6.18311821	5.85600616	28.47737955	2.2228717	0.49702404	2.34767549	-29.68121623	-5.19023521	6.26479589	-7.04621989	-4.4806784	43.66534892	5.38393913	0.76210411	10.3760228	-9.47737979	-12.34841411	-5.05858069	0.86770051	-1.46263489	-13.24849761	-8.03713448	-22.08678744	13.21441106	90.00000001	0	0	17.90995597	-16.35333804	-10.28101994	94.38187907	90.00000001	0	0
1.59	-5.492709	0.19180293	4.95193913	1.09847112	0.93664433	0.47214099	28.39641246	-5.65322939	5.37865032	28.35365304	2.2228717	0.4948646	3.03787979	-29.72361289	-5.35003027	7.94620025	-7.68214735	-3.5110688	47.29093005	5.38393913	0.82538244	8.50598806	-11.19283594	-11.45920769	-5.12566179	1.29674025	-1.1367681	-12.25934904	-8.32520937	-22.01127032	13.9841929	90.00000001	0	0	16.9367958	-15.66311827	-10.08136082	93.38523189	90.00000001	0	0
1.6	-5.44318873	-0.18569618	5.22204325	1.09869185	0.93756268	0.47367178	27.5591917	-5.26855789	4.81130584	28.0876358	2.2228717	0.49022172	3.55141598	-29.62950143	-5.60339586	9.78868306	-8.17352278	-2.36860067	50.81129024	5.38393913	0.88682431	6.41862396	-13.09675859	-9.89332646	-5.05030345	1.74027925	-0.86096566	-11.33880675	-8.52910038	-21.76794833	14.68500538	90.00000001	0	0	16.01587535	-14.92443333	-9.75570627	92.00270065	90.00000001	0	0
1.61	-5.86516619	-0.27796802	5.29081198	1.09976283	0.93800778	0.47409377	27.20545653	-5.27272206	4.27756427	27.79524924	2.2228717	0.48511862	3.85034602	-29.17781138	-6.73394754	11.90354908	-8.09114056	-1.39444249	54.04101995	5.38393913	0.94319373	6.38112673	-13.97062346	-1.56700237	-4.32107022	1.93375216	-0.46854309	-10.97171535	-9.02683405	-19.71539662	16.23515169	90.00000001	0	0	14.73685651	-14.05200437	-9.5434847	90.380343	90.00000001	0	0
1.62	-5.79508107	-0.56914449	5.60524834	1.09843261	0.93878706	0.47640327	26.54498912	-4.8283135	4.09542523	27.5829705	2.2228717	0.48141365	4.07657267	-29.56452312	-6.74047653	13.83484561	-8.51924221	-0.43206391	57.11568129	5.38393913	0.99685669	5.11386051	-15.16861885	-0.54782384	-4.48955153	2.16311468	-0.10077056	-9.77209187	-9.19555347	-19.65915847	17.22780017	90.00000001	0	0	14.21252679	-13.49482323	-8.91757752	88.5259818	90.00000001	0	0
1.63	-5.79610984	-0.80717453	5.77071424	1.09795315	0.93961239	0.47767644	25.84136889	-4.50098985	3.92061325	27.24128258	2.2228717	0.47545007	4.3713639	-29.59869915	-6.89340709	15.6390363	-8.76005314	0.37054315	59.79644977	5.38393913	1.04364493	5.35424166	-15.76522478	-0.22720383	-4.43936685	2.43318631	0.38727929	-8.65274739	-9.52229573	-19.53715765	18.15849595	90.00000001	0	0	13.51331586	-12.71917167	-8.43671122	86.28899676	90.00000001	0	0
1.64	-5.8265444	-1.08129931	6.00123541	1.09722418	0.94034246	0.47880877	25.19505911	-4.15679641	3.73503597	26.92030241	2.2228717	0.46984791	4.69531125	-29.72034061	-6.99998385	17.52280284	-9.037673	1.13344998	62.15260055	5.38393913	1.08476752	5.74232128	-15.96494868	0.00113376	-4.3848627	2.73615122	0.80317377	-7.47275639	-9.88497061	-19.28816869	19.26400157	90.00000001	0	0	12.85272902	-12.00455633	-7.81842001	83.85704649	90.00000001	0	0
1.65	-5.6161815	-1.07747007	6.06208505	1.09657821	0.94150678	0.4803381	24.32168845	-3.95013146	3.93067644	26.67892761	2.2228717	0.46563513	5.07809201	-29.86199824	-7.09484914	18.95122278	-9.11755074	1.50288128	63.93786059	5.38393913	1.11592618	5.66573072	-16.25956563	0.15013869	-4.68236185	2.68584663	1.12531165	-5.91723266	-10.24014369	-19.15673615	20.24680019	90.00000001	0	0	11.9688645	-11.53478489	-7.46043344	81.72675163	90.00000001	0	0
1.66	-5.63886478	-1.58401214	6.54648078	1.09576036	0.94226944	0.48072459	23.49917736	-3.48813428	3.44534134	26.03127673	2.2228717	0.45433149	5.2267992	-30.06689139	-7.00663398	20.94449308	-9.50591853	2.42219674	65.60514566	5.38393913	1.1450258	5.65308579	-16.55330238	0.54428941	-4.56288365	3.28950339	1.54813208	-4.8313549	-10.80743825	-18.85568491	21.48673755	90.00000001	0	0	11.62737327	-10.61008471	-6.74329262	78.34026931	90.00000001	0	0
1.67	-6.08303696	-1.91265104	6.13582922	1.09639765	0.94234969	0.48205501	23.25229171	-2.85135648	4.00735045	25.54887427	2.2228717	0.44591198	5.39770123	-30.48737756	-6.85559889	22.86795538	-10.02578448	2.2482191	66.68263754	5.38393913	1.16383158	6.20071387	-16.36675312	1.28848474	-3.87050024	3.62112028	2.62184081	-4.07288085	-11.39553168	-18.34559875	23.26305379	90.00000001	0	0	10.72368435	-9.88527983	-6.05132225	75.25398112	90.00000001	0	0
1.68	-5.41220161	-1.72192204	6.81060444	1.09386351	0.94437982	0.48365244	21.82664582	-2.91434112	3.87130812	25.08981144	2.2228717	0.43789982	5.63412545	-30.94023996	-6.64336052	23.9926181	-9.75475827	2.91392882	67.27278892	5.38393913	1.17413166	6.10229291	-16.50074283	1.49482066	-4.92631733	3.31299186	2.5951135	-2.01378966	-11.66459869	-17.95468633	23.95213607	90.00000001	0	0	10.69728246	-9.54895569	-5.46502828	72.04467992	90.00000001	0	0
1.69	-5.18267354	-1.97711028	7.13567177	1.09305081	0.94551082	0.48467817	20.7031128	-2.47431944	3.97983887	24.2974578	2.2228717	0.42407064	5.70175569	-31.57047113	-6.23591137	25.405148	-10.00203521	3.26925854	67.55364427	5.38393913	1.17903351	6.28692645	-16.43475817	1.85066094	-5.21761253	3.61068897	2.9604953	-0.5948873	-12.18043894	-17.75852967	25.3276195	90.00000001	0	0	10.24222784	-9.04813043	-4.73427815	68.73602389	90.00000001	0	0
1.7	-5.13882007	-2.08136932	7.46451575	1.0920872	0.94637938	0.48575692	19.82343783	-2.2472111	3.9532513	23.61471302	2.2228717	0.41215449	5.86222109	-31.92411973	-6.11093227	26.90970714	-10.03338118	3.51948265	67.37874165	5.38393913	1.17598089	6.34407318	-16.4446912	1.93641615	-5.28214986	3.64089117	3.16353789	1.13793986	-12.63944156	-17.46125947	26.13643352	90.00000001	0	0	9.76120435	-8.60824411	-4.32406884	65.25439033	90.00000001	0	0
1.71	-5.06966527	-2.1524442	7.61618635	1.09094913	0.94730943	0.48656716	18.99426666	-2.02504198	4.15222951	23.06769926	2.2228717	0.4026073	6.10182819	-32.06828348	-6.09261589	28.23824265	-10.05773775	3.49254043	66.8120069	5.38393913	1.1660895	6.41875178	-16.39081379	1.95144019	-5.4405667	3.68400228	3.2598631	3.06637059	-13.1062056	-17.24695444	27.21104147	90.00000001	0	0	8.87395582	-8.33430868	-3.96393323	62.43847598	90.00000001	0	0
1.72	-4.91829271	-2.28580916	7.90224798	1.0897726	0.94836953	0.48706329	17.95195776	-1.80658356	4.11162628	22.25435502	2.2228717	0.38841177	6.24849922	-32.27033873	-5.94187041	29.44123759	-10.05515567	3.58958667	65.89910409	5.38393913	1.15015634	6.50796037	-16.22904093	1.99679203	-5.63153773	3.83634532	3.64469537	4.66327527	-13.76225709	-16.80679257	28.2979951	90.00000001	0	0	8.64938361	-7.69944043	-3.58399106	58.3177149	90.00000001	0	0
1.73	-4.71334221	-2.38413212	8.14980779	1.08846887	0.94942133	0.48769681	16.91636327	-1.57992271	4.10561002	21.55072866	2.2228717	0.37613117	6.30893292	-32.54091819	-5.70667535	30.47117108	-10.05564348	3.54689338	64.61084794	5.38393913	1.12767203	6.56085372	-16.06653581	2.02702102	-5.951751	3.91014837	3.96679355	6.26305133	-14.42495575	-16.45445428	29.90890211	90.00000001	0	0	8.33072879	-7.22649897	-3.24865536	54.4799021	90.00000001	0	0
1.74	-4.54429673	-2.52748627	8.4302046	1.08717154	0.95026747	0.48834711	15.91041113	-1.30458767	4.16505351	20.80376886	2.2228717	0.36309426	6.30681532	-32.92347057	-5.50184498	31.45269852	-10.07786882	3.48485653	63.00988166	5.38393913	1.0997299	6.63332705	-15.81866858	2.06586455	-6.22224919	4.03493122	4.16425038	7.86989174	-15.0131207	-16.06867308	31.61676903	90.00000001	0	0	7.91372812	-6.86873202	-2.93503346	50.73924086	90.00000001	0	0
1.75	-4.32627225	-2.65290723	8.64014973	1.08596712	0.9512465	0.48904518	14.81612207	-1.01469391	4.15983389	20.00108341	2.2228717	0.34908476	6.42222363	-32.96342547	-5.41699664	32.2021574	-10.1367791	3.2596316	61.01432608	5.38393913	1.06490088	6.69590125	-15.48109671	2.10376608	-6.53994426	4.12821895	4.40077286	9.49892369	-15.55150102	-15.74156965	33.34185213	90.00000001	0	0	7.5092912	-6.54591483	-2.58263775	46.86550775	90.00000001	0	0
1.76	-4.30431095	-2.70493532	8.87028455	1.08474161	0.95180674	0.48951546	13.88843604	-0.85061248	4.34215697	19.08482929	2.2228717	0.33309311	6.4760932	-33.33557493	-5.27913929	33.03554789	-10.02926949	2.98918824	58.75586252	5.38393913	1.02548326	6.69605711	-15.15994559	2.15516677	-6.64672221	4.12887508	4.51271828	11.16122129	-16.13335245	-15.26848238	34.98260102	90.00000001	0	0	6.96428302	-6.32469433	-2.2299484	43.21559333	90.00000001	0	0
